P2
4 4
255
110 140 157 170
180 189 196 202
207 212 216 220
224 227 230 233
