P3
10 10
255
0 0 0 25 0 15 50 0 30 75 0 45 100 0 60 125 0 75 150 0 90 175 0 105 200 0 120 225 0 135 
0 25 15 25 25 30 50 25 45 75 25 60 100 25 75 125 25 90 150 25 105 175 25 120 200 25 135 225 25 150 
0 50 30 25 50 45 50 50 60 75 50 75 100 50 90 125 50 105 150 50 120 175 50 135 200 50 150 225 50 165 
0 75 45 25 75 60 50 75 75 75 75 90 100 75 105 125 75 120 150 75 135 175 75 150 200 75 165 225 75 180 
0 100 60 25 100 75 50 100 90 75 100 105 100 100 120 125 100 135 150 100 150 175 100 165 200 100 180 225 100 195 
0 125 75 25 125 90 50 125 105 75 125 120 100 125 135 125 125 150 150 125 165 175 125 180 200 125 195 225 125 210 
0 150 90 25 150 105 50 150 120 75 150 135 100 150 150 125 150 165 150 150 180 175 150 195 200 150 210 225 150 225 
0 175 105 25 175 120 50 175 135 75 175 150 100 175 165 125 175 180 150 175 195 175 175 210 200 175 225 225 175 240 
0 200 120 25 200 135 50 200 150 75 200 165 100 200 180 125 200 195 150 200 210 175 200 225 200 200 240 225 200 255 
0 225 135 25 225 150 50 225 165 75 225 180 100 225 195 125 225 210 150 225 225 175 225 240 200 225 255 225 225 14 
