P2
80 80
255
110 109 109 109 108 108 107 107 106 106 106 105 105 105 105 104 104 104 104 102 103 103 102 102 102 102 102 101 101 101 101 101 101 101 101 101 101 101 101 101 101 101 101 101 101 101 102 102 102 102 103 103 104 104 104 105 105 106 106 107 107 107 109 108 110 109 110 111 112 112 112 113 114 114 115 116 117 118 119 120 
110 110 110 109 109 109 108 108 107 107 106 106 106 105 105 105 105 104 104 104 101 103 103 103 102 102 102 102 102 101 101 101 101 101 101 101 101 101 101 101 101 101 100 100 102 102 102 102 103 103 103 104 104 105 105 106 106 107 107 108 108 109 109 109 110 110 111 111 112 112 113 114 115 115 116 117 118 119 120 121 
111 111 110 110 110 109 109 108 108 107 107 106 106 106 106 105 105 105 104 104 104 104 103 103 103 102 102 102 102 102 102 102 101 101 101 101 101 101 101 101 102 102 102 102 101 101 103 103 104 104 103 105 105 106 106 107 107 108 108 109 109 109 109 110 110 111 111 112 113 113 114 115 116 117 118 119 120 121 122 123 
112 111 111 110 110 110 110 109 108 108 108 107 107 106 106 106 105 105 105 105 104 104 104 103 103 103 103 102 102 102 102 102 102 102 102 102 102 102 102 102 102 101 103 103 102 102 104 103 105 105 105 106 106 106 107 107 108 108 109 109 110 110 111 110 111 111 112 113 113 115 116 117 118 119 120 121 122 123 124 125 
113 112 112 111 111 110 110 110 109 109 108 108 107 107 106 106 106 106 105 105 105 105 104 104 104 103 103 103 103 103 103 103 103 103 103 103 103 103 103 103 103 103 104 104 103 105 105 105 104 106 106 106 106 107 107 108 108 108 109 110 109 111 112 112 112 113 114 115 116 117 118 119 120 121 122 123 123 124 125 126 
114 113 112 112 111 111 111 110 110 109 109 108 108 107 107 107 106 106 106 106 105 105 105 105 104 104 104 104 104 104 104 104 104 104 104 104 104 104 104 104 104 105 105 105 105 105 106 106 105 106 106 106 107 108 108 108 108 110 110 111 111 112 113 114 114 115 116 117 118 119 120 120 121 122 123 124 126 125 126 127 
114 114 113 113 112 112 111 111 109 110 110 109 108 108 108 107 107 107 106 106 106 106 106 105 105 105 105 105 105 105 105 105 105 105 105 105 105 105 105 105 105 105 106 106 106 106 106 106 106 107 106 107 108 108 109 109 110 111 110 112 113 114 115 116 116 117 119 119 120 121 121 122 123 124 124 125 126 127 128 129 
115 115 114 114 113 113 112 111 111 111 110 110 110 109 108 108 108 107 107 107 107 107 107 107 106 106 106 106 106 106 106 106 106 106 106 106 106 106 106 106 106 106 106 107 107 107 107 107 107 107 107 108 109 109 109 111 111 111 112 113 114 115 116 117 118 119 120 120 122 122 122 123 124 125 126 127 127 128 129 130 
116 116 115 115 114 114 113 112 112 112 111 111 111 110 110 109 109 108 108 108 108 108 107 107 107 107 107 107 107 107 107 107 107 107 107 107 107 107 107 107 107 107 107 107 107 108 108 108 108 109 109 110 110 110 112 112 113 114 115 115 116 117 118 119 119 120 121 122 122 123 124 125 125 126 127 128 129 130 132 132 
116 117 116 116 115 115 114 114 113 113 112 112 112 111 111 111 110 110 109 109 109 109 109 109 108 108 108 108 108 108 108 108 108 108 108 108 108 108 108 108 108 108 108 108 109 109 109 110 110 111 111 112 113 114 114 115 115 117 118 117 118 119 119 120 121 121 122 123 124 125 125 126 127 128 129 129 130 131 132 133 
119 118 117 117 116 116 115 115 114 114 114 113 113 112 112 112 112 111 111 111 110 110 110 110 109 109 109 109 109 109 109 109 109 109 109 109 109 109 109 109 109 109 109 110 110 111 111 111 112 113 114 114 115 116 117 117 118 118 119 120 119 121 121 121 122 123 123 124 125 126 127 128 129 129 130 131 132 133 134 135 
120 119 119 118 118 117 117 116 116 116 115 115 114 114 114 113 113 113 113 112 112 111 111 111 111 110 110 110 110 110 110 110 110 110 110 110 110 110 110 110 110 111 111 111 112 112 113 114 114 115 115 116 117 117 118 119 119 120 121 121 122 121 122 123 124 124 125 126 127 128 128 129 131 131 132 132 133 134 136 137 
122 121 120 120 120 119 119 118 118 117 117 116 117 116 115 115 115 114 114 114 113 113 112 112 112 111 111 111 111 111 111 111 111 111 111 111 111 111 111 111 112 113 113 113 114 113 115 116 116 116 117 118 118 119 119 120 120 120 122 122 122 123 124 124 125 126 126 127 128 129 130 131 132 133 133 134 135 136 138 139 
123 122 122 122 121 121 120 120 120 119 119 118 118 117 117 116 116 116 115 115 114 114 114 113 113 113 112 112 111 111 111 112 111 112 111 112 112 112 113 113 113 114 114 115 115 116 116 117 117 118 118 119 119 120 121 121 122 122 123 123 124 125 125 126 127 127 128 129 131 131 132 133 134 135 135 136 137 138 140 141 
125 125 124 124 123 123 122 122 121 121 121 120 120 119 118 118 117 117 116 116 116 115 115 115 114 114 114 114 114 113 112 113 113 113 113 113 114 114 115 115 115 116 116 117 117 117 118 118 119 119 120 120 121 122 122 122 122 124 125 125 125 126 127 128 129 129 130 131 131 133 134 135 136 136 137 138 139 140 142 143 
127 126 126 125 125 125 124 124 123 123 122 121 121 120 120 119 119 118 118 117 117 117 117 116 116 116 116 116 116 116 116 116 115 116 116 116 116 116 116 117 117 118 118 118 118 119 119 120 121 121 122 122 123 123 124 124 125 126 126 126 128 128 129 130 130 131 132 133 134 134 136 137 138 138 139 139 142 143 144 146 
129 128 128 127 127 126 126 125 125 124 124 123 123 122 122 122 121 120 120 119 119 119 118 118 118 118 118 118 118 118 118 118 119 119 120 119 119 120 120 120 119 119 119 120 120 120 121 121 124 122 124 124 124 125 126 126 126 128 128 129 130 130 131 132 132 133 134 136 137 137 139 139 140 140 141 143 145 146 148 149 
131 130 130 129 129 128 127 127 126 126 125 125 124 124 123 123 123 122 123 122 122 121 121 121 121 121 121 121 121 121 121 121 121 121 121 121 121 122 122 122 121 121 122 122 122 122 123 123 125 125 126 126 126 127 128 128 129 130 130 131 132 133 133 134 134 135 136 138 139 140 141 141 141 143 144 145 147 149 150 151 
133 132 132 131 130 130 129 129 128 128 127 127 126 126 126 125 125 125 124 124 124 123 124 124 124 124 124 124 124 124 124 124 124 123 125 124 124 124 124 124 124 123 124 125 124 124 125 125 126 127 128 128 129 129 130 130 131 132 133 133 134 135 135 136 136 138 139 140 141 142 142 143 146 145 148 149 150 151 153 153 
135 134 134 133 132 132 131 131 130 130 129 129 129 129 128 128 128 128 127 127 127 126 127 127 127 126 126 126 126 126 126 126 126 126 126 126 126 126 126 126 126 125 127 126 125 127 127 127 128 128 130 130 131 132 132 133 134 134 135 136 137 136 137 138 139 141 142 143 144 144 146 147 148 148 151 152 153 154 154 156 
138 137 136 136 135 134 134 133 133 132 132 132 132 131 131 131 131 131 130 130 130 130 130 130 129 129 129 128 128 128 128 128 128 128 128 128 128 128 128 128 129 129 129 129 130 129 130 131 131 132 132 133 133 134 135 135 136 137 137 138 138 139 140 141 143 144 145 146 147 148 149 150 150 152 154 155 155 156 158 159 
140 140 139 138 138 137 137 136 136 136 135 134 135 135 134 134 134 134 133 133 133 133 132 132 132 131 131 131 131 131 131 131 129 131 131 131 131 131 131 131 131 132 132 132 132 132 133 133 134 134 135 135 136 137 137 138 139 140 140 141 141 142 144 145 146 147 148 149 150 151 152 152 153 156 157 157 158 160 161 162 
143 143 142 142 141 141 140 140 140 139 139 139 138 138 138 137 137 137 136 136 136 135 135 135 134 134 134 133 133 133 133 133 133 133 133 133 133 133 133 134 134 134 134 135 135 135 136 136 138 137 138 138 139 140 140 141 142 142 142 143 145 146 147 148 149 150 151 152 153 154 154 157 157 158 159 161 162 163 164 166 
147 146 147 145 145 145 144 144 145 143 143 142 142 142 141 141 140 140 140 139 139 138 138 137 137 137 136 136 136 136 136 136 136 136 136 136 136 136 136 136 137 137 137 138 138 138 138 139 140 140 141 141 142 143 142 143 144 145 147 148 148 149 150 151 152 153 154 155 156 157 158 159 160 162 163 164 165 167 168 169 
151 151 150 150 150 149 149 149 148 147 147 147 147 145 146 144 144 143 143 142 142 141 141 141 140 140 140 139 139 139 139 139 139 139 139 139 139 139 139 140 140 140 140 140 141 141 142 142 143 143 144 145 145 145 146 146 147 149 149 151 152 152 154 155 155 157 157 158 160 161 162 163 164 165 167 168 169 170 172 173 
154 154 154 154 153 153 153 153 152 151 151 151 150 150 149 149 147 148 147 146 146 145 145 144 144 144 143 143 143 143 142 142 142 142 142 142 142 142 143 143 143 143 143 143 144 144 145 145 146 147 146 147 149 147 150 151 152 153 154 154 155 155 157 158 159 160 161 162 163 164 165 166 168 169 171 171 173 175 175 177 
159 158 158 157 157 156 156 155 155 154 153 153 155 152 153 152 151 150 150 152 189 214 148 149 147 147 147 147 146 146 146 145 146 146 146 146 146 146 146 146 146 147 147 147 148 148 149 148 150 150 151 150 151 153 154 155 156 156 157 158 159 159 161 161 162 164 166 166 167 168 169 171 173 174 176 175 177 178 180 180 
163 163 162 161 161 160 160 159 159 158 157 157 156 155 155 154 154 153 153 164 197 198 211 158 151 151 151 151 151 150 150 150 150 150 150 150 150 150 150 150 151 151 151 151 152 152 153 153 154 153 155 156 156 157 158 159 160 160 161 162 163 163 165 166 168 169 170 170 171 174 175 175 177 178 179 180 181 182 183 184 
169 168 167 166 166 166 164 163 163 162 161 161 160 159 159 158 157 155 165 206 207 211 174 176 165 155 155 155 155 155 155 155 154 154 155 155 154 155 155 155 155 155 156 156 156 157 157 158 158 159 159 160 161 162 162 163 164 164 165 167 168 169 170 171 172 172 174 175 176 177 178 179 180 181 182 184 185 185 187 189 
172 171 171 170 170 169 168 168 167 166 166 165 164 163 162 162 162 162 179 161 162 161 161 161 160 160 160 160 160 159 159 159 159 159 159 159 159 159 159 160 160 160 161 161 161 162 162 163 162 164 165 165 166 167 167 167 169 170 171 172 173 174 175 176 177 178 179 180 181 181 183 184 184 185 186 187 190 191 192 194 
176 175 176 175 175 175 174 172 171 170 170 169 168 168 168 168 170 171 167 168 170 166 166 165 165 165 165 164 164 164 164 164 164 164 164 164 164 164 164 164 164 165 166 167 167 167 168 168 170 169 170 171 172 172 173 174 175 176 177 178 178 178 179 180 180 232 235 236 185 186 186 188 189 216 237 242 233 240 234 234 
181 180 179 178 178 178 177 176 176 175 175 175 175 175 174 174 175 174 174 173 172 172 172 171 171 171 170 170 170 170 170 170 169 169 169 169 169 170 170 170 171 171 171 171 172 172 173 174 174 175 175 176 177 178 179 179 180 181 181 183 184 219 219 215 217 218 220 231 230 227 234 223 222 220 213 224 216 196 195 196 
235 233 203 183 183 183 182 183 182 182 182 183 182 182 181 181 180 179 179 178 178 178 178 177 177 178 177 176 176 176 176 176 176 176 176 176 176 176 176 176 177 177 177 178 178 178 179 180 181 181 181 182 183 184 185 186 209 186 207 204 187 187 189 191 234 222 218 220 223 215 203 227 217 224 207 200 199 199 199 209 
208 212 213 225 193 189 191 192 189 189 188 188 188 187 187 185 185 185 185 184 184 184 184 184 184 183 183 183 183 183 183 183 183 183 182 182 183 183 183 183 183 184 184 184 185 185 186 187 187 186 187 188 190 189 190 190 190 190 191 192 193 225 206 197 200 199 199 201 229 213 204 207 206 204 203 203 203 203 201 201 
197 200 196 196 196 196 196 196 195 195 194 193 193 194 193 193 192 192 193 192 191 191 191 191 190 191 190 190 190 190 190 190 190 190 190 190 190 190 190 191 192 191 192 192 192 193 193 193 193 194 195 196 195 196 206 209 220 229 221 234 201 210 216 221 205 206 207 209 208 210 211 209 208 206 209 208 206 205 203 204 
203 203 203 203 203 203 203 202 202 201 201 201 200 200 200 200 200 200 199 199 199 198 198 198 198 198 198 198 198 197 197 197 198 196 198 197 198 198 198 198 199 199 199 200 200 200 201 200 202 201 201 139 138 146 145 150 132 143 226 227 222 214 212 211 212 213 212 213 215 215 212 212 212 213 212 210 208 209 210 211 
210 210 210 210 209 209 211 208 208 210 207 208 216 220 228 207 207 207 207 206 206 206 206 206 206 206 205 206 205 205 206 204 207 203 206 206 206 205 205 205 207 207 206 208 208 210 122 131 121 122 124 124 123 122 125 122 124 125 137 150 229 231 217 217 219 219 221 219 219 218 219 218 217 216 215 215 215 215 171 144 
215 215 214 215 214 215 215 215 215 215 215 213 214 215 214 213 213 213 212 212 212 212 213 219 217 212 212 213 213 230 213 214 213 213 213 213 213 213 214 215 215 215 217 217 186 119 137 128 120 121 121 121 121 123 123 122 122 124 125 129 149 224 223 225 225 225 224 223 223 223 223 222 220 219 220 222 221 144 141 142 
219 218 219 219 220 219 220 220 220 220 220 220 220 220 220 220 220 219 219 218 219 218 220 219 218 220 220 220 220 219 221 221 221 221 221 222 222 222 222 227 223 222 222 121 118 119 137 120 124 121 121 121 132 122 123 124 123 123 124 124 134 144 203 230 229 227 227 228 228 226 224 224 224 225 226 226 142 141 142 142 
221 221 221 222 221 221 222 222 222 222 222 222 222 222 222 222 222 222 222 223 223 223 223 223 223 223 224 224 224 224 226 225 225 225 225 226 226 226 227 226 228 214 120 118 118 118 124 122 121 120 119 121 122 131 120 123 128 122 124 124 125 131 139 132 141 231 232 231 228 227 227 228 137 133 182 137 141 135 136 136 
126 127 123 132 147 131 154 156 220 220 143 152 152 220 221 221 221 221 222 222 222 222 223 223 223 223 223 224 224 224 224 225 224 225 225 226 226 226 226 223 163 119 118 120 117 128 122 121 123 120 122 123 132 122 122 123 124 122 123 123 124 124 124 124 144 146 227 225 226 226 131 131 133 131 134 133 136 134 134 135 
199 199 190 192 203 196 197 196 196 193 193 195 197 197 189 194 196 195 189 199 193 197 195 194 199 196 202 201 197 198 197 195 197 197 195 205 201 202 196 198 197 198 198 189 166 138 125 122 123 119 118 119 120 121 121 120 125 120 123 126 139 176 189 208 208 210 208 209 208 210 206 206 208 202 206 201 191 200 171 137 
198 176 180 186 185 188 188 183 186 198 191 191 178 189 189 195 190 193 206 186 189 164 187 194 179 176 193 197 174 189 185 182 211 194 187 182 194 191 199 198 181 184 184 182 165 169 177 131 114 115 141 130 120 120 157 138 116 134 159 150 192 181 188 191 186 194 193 203 202 203 204 206 202 203 196 196 194 185 178 176 
178 183 182 179 177 184 175 175 179 190 178 167 178 186 185 160 187 170 166 183 177 175 178 182 172 183 180 186 185 182 176 167 191 192 188 184 174 174 200 175 168 172 182 166 163 177 155 152 174 143 131 141 156 127 160 168 131 144 165 170 183 187 183 187 202 190 188 192 187 196 189 183 191 187 196 190 183 186 176 163 
186 162 175 183 164 169 175 179 172 181 185 163 149 163 163 163 172 166 166 165 155 173 193 173 153 160 156 164 181 178 205 173 154 150 176 160 194 176 164 174 208 166 178 170 162 165 146 156 157 151 134 161 147 149 158 150 169 159 163 172 163 172 176 191 178 193 194 178 191 186 179 203 184 179 182 183 180 182 171 161 
184 179 173 188 165 176 167 147 173 180 161 184 163 160 160 168 159 158 150 178 150 167 165 159 166 138 145 164 161 157 160 154 166 193 158 164 171 140 164 163 180 154 173 150 169 166 173 159 162 141 144 152 112 152 152 151 161 152 155 164 160 180 170 188 176 210 166 172 182 190 167 207 181 179 198 196 165 176 183 174 
169 160 156 205 145 148 146 153 139 160 144 153 146 142 160 150 147 159 166 120 158 140 148 157 160 159 160 155 168 154 166 137 155 154 132 146 151 169 143 183 146 144 159 146 150 137 133 121 141 143 140 119 141 149 142 141 142 167 145 134 153 150 166 159 187 145 157 145 174 174 167 171 168 187 171 163 174 156 170 167 
154 140 150 147 168 141 171 144 146 158 144 122 143 150 178 152 148 136 172 162 142 127 140 137 133 139 128 134 116 154 165 142 121 149 118 160 158 154 120 125 137 143 133 160 165 131 121 156 129 141 122 130 140 146 134 151 150 136 156 140 154 160 132 126 154 169 154 147 187 164 169 170 173 161 169 171 182 161 161 167 
120 148 159 163 145 132 117 139 144 148 125 158 110 116 113 130 122 149 147 96 108 102 136 138 121 129 126 135 124 116 103 85 97 117 107 103 126 127 145 135 122 147 141 119 112 143 122 114 100 120 113 130 134 131 144 112 115 146 142 135 125 150 150 149 119 135 156 177 160 167 146 187 151 169 168 170 163 151 170 157 
140 136 140 131 159 114 134 123 142 159 120 110 148 127 117 126 131 129 109 145 115 109 118 112 121 149 103 97 109 136 139 162 135 131 117 100 127 116 117 115 117 129 135 113 103 112 123 130 129 127 139 131 144 107 131 138 152 151 130 122 108 136 137 183 160 144 147 143 175 164 185 153 138 177 170 139 162 156 139 141 
139 126 134 185 131 114 117 171 119 136 107 139 117 90 94 88 131 147 119 135 108 103 116 102 100 119 146 146 106 117 111 148 109 113 112 118 92 123 123 110 120 95 125 124 114 110 114 121 103 100 112 114 138 120 93 119 124 121 115 145 120 134 130 126 132 120 125 119 144 130 167 166 143 170 118 126 147 154 152 161 
106 128 174 191 131 139 146 169 75 104 107 135 156 97 86 111 100 108 116 104 109 101 97 119 99 97 112 96 100 91 95 83 94 100 77 101 103 82 100 110 113 120 103 110 107 115 137 119 113 133 139 130 122 91 117 147 106 118 145 126 123 142 118 121 152 136 119 117 110 114 113 161 132 132 169 143 149 152 148 135 
137 143 130 96 122 119 140 140 136 93 103 127 94 111 135 134 100 119 99 90 93 88 119 104 124 117 90 95 82 84 94 98 102 96 150 109 131 91 105 110 91 96 164 149 89 113 97 89 95 97 71 84 99 101 108 91 117 98 100 120 86 120 127 116 95 109 94 118 106 123 133 120 96 97 159 136 116 128 104 110 
130 136 86 104 102 106 117 103 102 95 93 92 111 108 88 105 83 104 113 131 104 103 99 118 85 94 102 95 88 89 87 85 78 94 77 83 91 90 101 78 82 72 102 79 92 81 87 111 103 100 83 73 92 93 104 100 99 124 124 101 107 110 119 109 99 127 154 140 108 123 113 122 122 138 158 126 102 129 153 154 
89 96 118 109 86 102 106 147 117 143 89 96 94 93 96 125 142 142 86 89 93 94 87 95 114 91 97 85 102 99 91 102 102 87 73 108 81 89 87 63 89 91 88 139 106 106 91 77 101 111 97 96 79 76 97 100 89 98 104 88 111 130 109 125 125 112 100 101 107 94 113 128 144 161 122 147 135 126 115 121 
137 105 106 137 136 112 99 81 72 78 96 128 99 99 113 101 91 85 77 79 94 82 116 90 81 111 82 93 93 70 81 67 69 73 75 88 93 80 100 88 119 121 93 70 72 69 88 77 85 81 60 61 114 106 90 80 90 99 80 101 138 86 111 92 118 132 141 140 108 114 125 102 114 103 107 167 131 107 158 144 
71 64 91 82 95 93 86 89 91 101 76 97 100 82 88 92 93 105 111 111 94 99 79 101 90 69 74 86 55 68 75 71 76 80 81 93 86 81 87 113 71 72 78 70 64 71 68 71 63 80 89 97 82 63 64 126 90 101 119 107 128 120 94 84 99 117 102 92 101 112 142 118 98 108 111 102 114 119 127 93 
105 98 127 99 91 108 104 92 138 86 84 78 84 85 107 62 73 85 93 64 66 91 98 74 68 64 78 78 77 64 53 73 67 70 71 88 67 66 79 81 73 65 73 71 89 89 81 85 90 76 81 71 64 72 98 70 106 74 91 73 91 79 78 73 90 91 85 132 90 94 94 83 114 106 135 109 141 107 132 137 
101 97 116 105 96 110 121 109 94 87 95 69 73 66 62 76 66 105 94 95 85 65 63 69 91 98 68 80 80 77 90 79 90 74 68 69 94 87 73 81 102 73 73 82 86 89 80 81 80 77 78 72 79 68 76 73 81 86 82 83 83 72 66 70 96 85 95 70 77 78 86 78 79 107 84 104 88 134 133 120 
115 74 78 101 87 63 83 89 64 61 71 64 72 86 90 87 83 85 75 71 80 54 64 56 63 69 72 64 72 75 91 90 64 58 60 55 53 51 63 63 75 67 50 62 54 47 54 67 65 62 77 80 93 102 72 90 85 83 65 78 66 82 79 95 95 91 100 81 78 94 77 96 98 101 98 90 87 80 111 117 
82 77 71 61 72 86 50 69 82 58 63 72 50 47 61 55 59 79 63 62 56 50 53 60 73 83 91 69 73 63 53 57 64 49 55 56 77 54 63 64 49 56 57 53 52 63 70 71 64 66 57 50 57 55 63 66 66 55 66 62 78 72 85 54 70 64 79 59 83 79 119 78 84 73 89 89 77 106 82 78 
61 81 91 68 70 68 74 76 66 70 65 64 61 72 62 82 79 56 65 56 58 55 60 54 63 78 59 70 70 65 52 46 63 66 55 70 61 61 59 70 57 70 68 79 69 43 52 66 65 54 54 63 63 81 62 74 76 74 65 67 68 70 51 81 60 63 87 91 74 71 68 66 102 102 72 75 106 133 93 92 
90 94 77 81 61 115 79 91 79 73 73 78 73 74 72 63 53 48 57 66 74 68 81 83 83 47 68 55 57 45 67 65 69 61 75 66 67 66 70 52 42 60 75 55 62 53 67 62 62 77 75 64 52 60 69 65 62 72 67 60 54 69 70 62 76 71 72 59 89 101 75 107 82 100 88 95 124 109 80 94 
61 72 63 56 60 47 46 71 68 55 63 62 52 48 56 72 54 67 48 66 69 64 74 78 60 45 39 45 49 53 56 54 32 40 39 42 40 39 47 51 42 66 52 64 56 44 35 42 49 59 58 53 61 45 48 43 45 35 43 57 81 64 79 95 70 89 73 80 57 72 70 72 76 82 117 96 98 92 100 124 
64 65 71 76 77 87 66 62 58 56 59 49 50 76 63 59 42 52 56 53 47 65 42 49 54 39 48 50 60 43 37 39 41 41 38 31 46 35 50 46 50 44 47 54 44 48 43 60 56 49 43 37 46 66 56 40 47 76 67 49 57 70 58 69 70 71 59 66 55 70 60 48 81 65 60 63 56 82 78 62 
63 55 67 79 79 89 98 91 69 66 77 85 69 67 57 51 60 83 51 60 66 45 38 46 55 56 60 51 43 41 42 40 51 54 42 39 43 43 49 41 42 47 44 56 56 47 62 58 44 51 54 57 53 59 66 73 61 70 58 61 63 67 57 65 73 64 67 55 69 73 56 93 81 86 98 87 67 62 66 74 
75 68 59 62 56 79 54 59 52 69 65 54 56 60 53 48 55 60 52 32 34 37 49 47 53 49 58 47 42 48 44 37 52 41 46 60 66 45 53 35 37 40 43 48 41 37 46 44 44 43 42 54 47 37 76 62 55 62 40 67 43 40 38 38 57 88 77 71 77 56 73 73 60 76 52 70 93 73 66 85 
48 48 57 59 64 63 61 65 51 54 66 51 50 72 60 62 37 40 42 43 62 51 58 41 61 59 37 50 61 41 58 49 49 44 38 48 51 43 35 31 28 32 44 42 36 48 47 63 65 47 43 52 40 49 51 42 54 46 40 39 55 48 44 49 43 38 36 46 82 66 99 70 59 59 52 69 61 66 83 60 
68 53 77 67 70 55 57 55 62 65 60 60 59 40 37 39 42 46 49 39 53 45 40 50 46 38 46 41 44 39 34 39 46 53 40 38 34 28 41 46 36 34 26 27 29 37 33 39 31 37 39 50 39 43 44 48 58 46 47 50 42 39 57 52 40 48 41 43 40 41 40 48 59 84 76 64 59 78 67 49 
63 61 63 63 56 50 64 50 54 54 49 51 44 38 40 44 45 50 48 39 36 60 53 41 51 37 46 40 33 32 38 37 32 48 36 33 41 29 24 36 41 43 35 31 31 27 23 30 27 41 44 55 45 35 48 50 44 50 40 54 31 40 53 42 52 45 46 53 40 44 39 45 40 36 56 59 68 61 61 60 
69 68 58 51 54 51 41 45 43 51 49 44 47 49 54 50 58 46 44 60 42 42 58 65 48 47 41 43 55 60 53 41 59 54 52 48 35 35 32 41 45 40 35 29 39 37 36 42 37 28 46 54 41 55 35 39 35 51 48 43 59 57 55 46 56 55 63 47 47 32 37 57 51 55 47 51 56 76 96 66 
59 55 46 47 50 48 47 45 41 54 48 56 45 46 33 32 37 35 35 40 44 41 35 40 28 26 35 40 34 38 41 47 38 37 29 33 32 36 22 27 23 24 32 37 27 30 37 31 35 32 35 31 32 42 30 25 37 38 30 41 32 34 46 49 44 57 52 47 49 50 43 34 33 33 32 38 47 39 39 56 
41 51 42 48 42 47 44 45 46 50 34 50 46 38 40 44 42 39 44 33 31 39 31 32 29 34 31 30 38 39 30 34 34 27 32 35 30 29 33 29 23 23 19 30 31 31 26 37 33 27 27 36 29 32 32 31 34 40 36 35 37 38 36 34 33 56 54 54 36 50 50 56 48 38 43 40 36 44 45 41 
50 42 49 59 60 45 39 54 52 34 41 32 39 41 29 27 40 48 42 37 39 28 29 30 31 30 32 24 37 29 31 27 36 31 33 30 36 32 24 29 22 23 24 21 23 24 22 22 19 25 23 28 25 24 27 36 29 34 37 43 29 36 31 26 35 25 34 37 55 45 47 65 40 43 33 44 32 36 47 49 
57 48 38 32 52 36 51 38 36 37 42 53 41 35 36 38 44 39 40 38 27 31 28 31 29 37 37 41 28 26 31 31 23 33 29 32 31 23 26 28 28 28 27 22 25 18 27 21 23 25 18 25 25 23 29 22 27 34 37 30 29 28 29 29 32 37 30 36 53 54 43 83 64 77 65 55 51 38 39 44 
38 38 39 46 45 40 38 38 42 34 35 36 31 34 36 44 33 30 28 30 32 25 30 31 35 35 34 23 24 24 27 23 26 29 35 24 32 23 26 30 23 27 29 33 27 25 29 23 24 22 21 21 25 21 22 30 30 29 30 30 37 32 25 39 32 32 35 28 38 37 40 42 53 58 57 60 76 57 46 49 
40 41 44 41 47 35 43 46 29 43 35 36 30 34 35 28 23 29 24 20 28 30 32 27 24 27 30 20 26 24 26 29 37 30 24 36 28 22 20 37 28 40 24 30 24 25 19 31 25 27 28 21 23 24 26 30 29 37 37 35 44 41 40 41 37 31 29 35 31 43 40 55 37 38 59 46 41 41 37 49 
57 52 41 42 33 35 37 38 38 34 35 29 42 21 20 29 43 33 32 26 33 34 19 25 29 27 22 27 21 26 27 35 30 28 30 31 38 29 32 35 38 33 38 38 27 37 32 25 25 27 24 29 25 21 19 22 27 35 30 50 36 33 38 38 49 38 47 38 29 31 27 24 40 47 56 49 59 51 47 40 
45 36 44 32 33 31 36 30 31 31 22 27 25 22 28 32 26 27 38 25 30 27 24 24 25 24 21 23 19 23 24 24 23 22 28 28 26 19 34 23 27 29 25 21 25 34 26 23 35 26 23 23 23 22 27 23 26 28 30 29 49 44 39 31 28 65 43 31 38 31 35 29 29 29 31 35 43 53 38 55 
38 40 35 25 35 38 27 27 33 37 36 33 44 37 36 36 27 31 30 29 21 30 24 23 23 24 28 27 24 20 21 22 20 39 25 23 39 38 30 27 29 25 35 37 30 25 23 24 17 20 17 20 17 23 24 23 24 22 24 27 34 27 37 40 44 36 43 47 40 48 47 43 46 31 37 33 33 47 43 63 
